<?xml version="1.0" encoding="utf-8"?>
<!-- Generator: Adobe Illustrator 25.4.1, SVG Export Plug-In . SVG Version: 6.00 Build 0)  -->
<svg version="1.1" id="Layer_1" xmlns="http://www.w3.org/2000/svg" xmlns:xlink="http://www.w3.org/1999/xlink" x="0px" y="0px"
	 viewBox="0 0 56.7 56.7" style="enable-background:new 0 0 56.7 56.7;" xml:space="preserve">
<style type="text/css">
	.st0{fill-rule:evenodd;clip-rule:evenodd;fill:url(#SVGID_1_);}
	.st1{fill:url(#SVGID_00000096773310533698854520000001217612826275589516_);}
	.st2{fill:url(#SVGID_00000031901017937654744300000006963844932666014628_);}
	.st3{fill:url(#SVGID_00000132790876892136139790000016945388655243699099_);}
	.st4{fill:url(#SVGID_00000157288886581193275030000018229569813907167143_);}
	.st5{fill:url(#SVGID_00000130648894774149706770000004951484786487826861_);}
	.st6{fill:url(#SVGID_00000129166202646240534510000013308638416873403567_);}
	.st7{fill:url(#SVGID_00000105422359727172588580000012260137612589432994_);}
</style>
<g>
	<linearGradient id="SVGID_1_" gradientUnits="userSpaceOnUse" x1="3.9484" y1="29.1169" x2="53.53" y2="29.1169">
		<stop  offset="0" style="stop-color:#FF00E0"/>
		<stop  offset="1" style="stop-color:#FF0029"/>
		<stop  offset="1" style="stop-color:#000000"/>
	</linearGradient>
	<path class="st0" d="M28.7,4.9C15,4.9,3.9,16,3.9,29.7c0,11,7.1,20.2,17,23.5c1.2,0.2,1.7-0.5,1.7-1.2c0-0.6,0-2.5,0-4.6
		c-6.9,1.5-8.4-2.9-8.4-2.9c-1.1-2.9-2.8-3.6-2.8-3.6c-2.2-1.5,0.2-1.5,0.2-1.5c2.5,0.2,3.8,2.6,3.8,2.6c2.2,3.8,5.8,2.7,7.2,2.1
		c0.2-1.6,0.9-2.7,1.6-3.3c-5.5-0.6-11.3-2.8-11.3-12.3c0-2.7,1-4.9,2.6-6.7c-0.3-0.6-1.1-3.1,0.2-6.6c0,0,2.1-0.7,6.8,2.5
		c2-0.5,4.1-0.8,6.2-0.8c2.1,0,4.2,0.3,6.2,0.8c4.7-3.2,6.8-2.5,6.8-2.5c1.3,3.4,0.5,5.9,0.2,6.6c1.6,1.7,2.6,3.9,2.6,6.7
		c0,9.5-5.8,11.6-11.3,12.2c0.9,0.8,1.7,2.3,1.7,4.6c0,3.3,0,6,0,6.8c0,0.7,0.4,1.4,1.7,1.2c9.8-3.3,16.9-12.6,16.9-23.5
		C53.5,16,42.4,4.9,28.7,4.9z"/>
	
		<linearGradient id="SVGID_00000124879558659995076340000000330327567730237628_" gradientUnits="userSpaceOnUse" x1="12.6742" y1="40.3829" x2="13.3563" y2="40.3829">
		<stop  offset="0" style="stop-color:#FF00E0"/>
		<stop  offset="1" style="stop-color:#FF0029"/>
		<stop  offset="1" style="stop-color:#000000"/>
	</linearGradient>
	<path style="fill:url(#SVGID_00000124879558659995076340000000330327567730237628_);" d="M13.3,40.5c-0.1,0.1-0.2,0.2-0.4,0.1
		c-0.2-0.1-0.3-0.2-0.2-0.4c0.1-0.1,0.2-0.2,0.4-0.1C13.3,40.2,13.4,40.4,13.3,40.5L13.3,40.5z"/>
	
		<linearGradient id="SVGID_00000080188030373332607260000004442956564673166780_" gradientUnits="userSpaceOnUse" x1="13.6905" y1="41.3374" x2="14.4177" y2="41.3374">
		<stop  offset="0" style="stop-color:#FF00E0"/>
		<stop  offset="1" style="stop-color:#FF0029"/>
		<stop  offset="1" style="stop-color:#000000"/>
	</linearGradient>
	<path style="fill:url(#SVGID_00000080188030373332607260000004442956564673166780_);" d="M14.3,41.7c-0.1,0.1-0.3,0.1-0.5-0.1
		c-0.2-0.2-0.2-0.4-0.1-0.5c0.1-0.1,0.3-0.1,0.5,0.1C14.4,41.3,14.5,41.5,14.3,41.7L14.3,41.7z"/>
	
		<linearGradient id="SVGID_00000145764161254328064100000015218679564550155192_" gradientUnits="userSpaceOnUse" x1="14.6521" y1="42.6772" x2="15.4366" y2="42.6772">
		<stop  offset="0" style="stop-color:#FF00E0"/>
		<stop  offset="1" style="stop-color:#FF0029"/>
		<stop  offset="1" style="stop-color:#000000"/>
	</linearGradient>
	<path style="fill:url(#SVGID_00000145764161254328064100000015218679564550155192_);" d="M15.3,43.1c-0.2,0.1-0.4,0-0.6-0.2
		c-0.2-0.2-0.2-0.5,0-0.6c0.2-0.1,0.4,0,0.6,0.2C15.5,42.7,15.5,43,15.3,43.1L15.3,43.1z"/>
	
		<linearGradient id="SVGID_00000001640302833101342740000003793609650396552337_" gradientUnits="userSpaceOnUse" x1="15.8082" y1="44.0955" x2="16.7362" y2="44.0955">
		<stop  offset="0" style="stop-color:#FF00E0"/>
		<stop  offset="1" style="stop-color:#FF0029"/>
		<stop  offset="1" style="stop-color:#000000"/>
	</linearGradient>
	<path style="fill:url(#SVGID_00000001640302833101342740000003793609650396552337_);" d="M16.7,44.5c-0.1,0.1-0.4,0.1-0.6-0.1
		c-0.2-0.2-0.3-0.5-0.1-0.6c0.1-0.2,0.4-0.1,0.6,0.1C16.7,44,16.8,44.3,16.7,44.5L16.7,44.5z"/>
	
		<linearGradient id="SVGID_00000148638324002090628570000016085928244768064170_" gradientUnits="userSpaceOnUse" x1="17.4692" y1="45.105" x2="18.5169" y2="45.105">
		<stop  offset="0" style="stop-color:#FF00E0"/>
		<stop  offset="1" style="stop-color:#FF0029"/>
		<stop  offset="1" style="stop-color:#000000"/>
	</linearGradient>
	<path style="fill:url(#SVGID_00000148638324002090628570000016085928244768064170_);" d="M18.5,45.3c-0.1,0.2-0.3,0.3-0.6,0.2
		c-0.3-0.1-0.5-0.3-0.4-0.5c0.1-0.2,0.3-0.3,0.6-0.2C18.4,44.8,18.6,45.1,18.5,45.3L18.5,45.3z"/>
	
		<linearGradient id="SVGID_00000092420054207039107640000013155503172138819740_" gradientUnits="userSpaceOnUse" x1="19.4696" y1="45.4168" x2="20.5353" y2="45.4168">
		<stop  offset="0" style="stop-color:#FF00E0"/>
		<stop  offset="1" style="stop-color:#FF0029"/>
		<stop  offset="1" style="stop-color:#000000"/>
	</linearGradient>
	<path style="fill:url(#SVGID_00000092420054207039107640000013155503172138819740_);" d="M20.5,45.4c0,0.2-0.2,0.4-0.5,0.4
		c-0.3,0-0.5-0.2-0.5-0.4c0-0.2,0.2-0.4,0.5-0.4C20.3,45,20.5,45.2,20.5,45.4L20.5,45.4z"/>
	
		<linearGradient id="SVGID_00000105392902727218797820000017509580442189198525_" gradientUnits="userSpaceOnUse" x1="21.3658" y1="45.1813" x2="22.427" y2="45.1813">
		<stop  offset="0" style="stop-color:#FF00E0"/>
		<stop  offset="1" style="stop-color:#FF0029"/>
		<stop  offset="1" style="stop-color:#000000"/>
	</linearGradient>
	<path style="fill:url(#SVGID_00000105392902727218797820000017509580442189198525_);" d="M22.4,45.1c0,0.2-0.2,0.4-0.5,0.5
		c-0.3,0.1-0.6-0.1-0.6-0.3c0-0.2,0.2-0.4,0.5-0.5C22.1,44.8,22.4,44.9,22.4,45.1L22.4,45.1z"/>
</g>
</svg>
