<?xml version="1.0" encoding="utf-8"?>
<!-- Generator: Adobe Illustrator 25.4.1, SVG Export Plug-In . SVG Version: 6.00 Build 0)  -->
<svg version="1.1" id="Layer_1" xmlns="http://www.w3.org/2000/svg" xmlns:xlink="http://www.w3.org/1999/xlink" x="0px" y="0px"
	 viewBox="0 0 383.3 287.8" style="enable-background:new 0 0 383.3 287.8;" xml:space="preserve">
<style type="text/css">
	.st0{fill:#FFFFFF;}
</style>
<path class="st0" d="M0,257.1c0-58.8,0-117.5,0-176.2c0.6,0.2,1.2,0.4,1.7,0.7c51.9,34.6,103.7,69.3,155.6,103.9
	c22.6,15.1,46,15.2,68.5,0.2c51.2-34.2,102.5-68.4,153.7-102.7c1.1-0.7,2.2-1.4,3.8-2.4c0,1.4,0,2.2,0,3.1c0,56,0,112,0,168
	c0,3.1-0.4,6.3-1.1,9.3c-4.1,16.5-18,26.7-36.1,26.8c-51,0-102,0-153.1,0c-51.9,0-103.8,0-155.7,0c-10.2,0-19.1-3-26.6-10.1
	C4.8,272.1,1.8,264.9,0,257.1z M0,40.4c2.6,12.8,11,20.7,21.6,27.7c49.3,32.6,98.4,65.6,147.6,98.4c16,10.7,29,10.7,45.1,0
	c27.9-18.6,55.8-37.3,83.7-55.9c23.4-15.7,47-31.2,70.3-47c17.7-12,20.2-35.8,5.9-51.7C366.5,3.3,356.8,0,345.7,0
	c-95.9,0-191.9,0-287.8,0c-7.4,0-14.7-0.1-22.1,0C19.9,0.3,6.8,9.7,1.9,24.2c-0.7,2.1-1.2,4.3-1.9,6.4C0,33.9,0,37.1,0,40.4z"/>
</svg>
