<?xml version="1.0" encoding="utf-8"?>
<!-- Generator: Adobe Illustrator 25.2.2, SVG Export Plug-In . SVG Version: 6.00 Build 0)  -->
<svg version="1.1" id="Layer_1" xmlns="http://www.w3.org/2000/svg" xmlns:xlink="http://www.w3.org/1999/xlink" x="0px" y="0px"
	 viewBox="0 0 13.4 32" style="enable-background:new 0 0 13.4 32;" xml:space="preserve">
<path d="M0,12.6v6.7C0,23,3,26,6.7,26s6.7-3,6.7-6.7v-6.7c0-3.7-3-6.7-6.7-6.7S0,9,0,12.6z M6.7,7.4c2.9,0,5.2,2.3,5.2,5.2v6.7
	c0,2.9-2.3,5.2-5.2,5.2s-5.2-2.3-5.2-5.2v-6.7C1.5,9.8,3.8,7.4,6.7,7.4z"/>
<path d="M6.7,13.8c0.4,0,0.7-0.3,0.7-0.7v-2.2c0-0.4-0.3-0.7-0.7-0.7s-0.7,0.3-0.7,0.7V13C5.9,13.4,6.3,13.8,6.7,13.8z"/>
<path d="M6.2,31.7C6.3,31.9,6.5,32,6.7,32c0.2,0,0.4-0.1,0.5-0.2l1.9-1.9c0.3-0.3,0.3-0.7,0-1c-0.3-0.3-0.7-0.3-1,0l-1.3,1.3
	l-1.3-1.3c-0.3-0.3-0.7-0.3-1,0s-0.3,0.7,0,1L6.2,31.7z"/>
<path d="M6.2,0.2L4.3,2.1C4,2.4,4,2.8,4.3,3.1c0.1,0.1,0.3,0.2,0.5,0.2c0.2,0,0.4-0.1,0.5-0.2l1.3-1.3L8,3.1
	c0.1,0.1,0.3,0.2,0.5,0.2c0.2,0,0.4-0.1,0.5-0.2c0.3-0.3,0.3-0.7,0-1L7.2,0.2C6.9-0.1,6.5-0.1,6.2,0.2z"/>
</svg>
