<svg xmlns="http://www.w3.org/2000/svg" xmlns:xlink="http://www.w3.org/1999/xlink" viewBox="0 0 300 300"><defs><style>.cls-1,.cls-5,.cls-6{opacity:0.2;}.cls-2,.cls-4{fill:none;stroke:#000;stroke-linecap:round;stroke-linejoin:round;}.cls-2{stroke-width:3px;}.cls-3{fill:url(#Main_Gradient);}.cls-5{fill:url(#Main_Gradient-2);}.cls-6{fill:url(#Main_Gradient-3);}</style><radialGradient id="Main_Gradient" cx="62.47" cy="254.31" r="18.81" gradientUnits="userSpaceOnUse"><stop offset="0" stop-color="red"/><stop offset="0.53" stop-color="#ff7f00"/><stop offset="1" stop-color="#ff00a2"/></radialGradient><radialGradient id="Main_Gradient-2" cx="45.66" cy="237.5" r="18.81" xlink:href="#Main_Gradient"/><radialGradient id="Main_Gradient-3" cx="47.76" cy="252.21" r="25.12" xlink:href="#Main_Gradient"/></defs><g id="Layer_3" data-name="Layer 3"><path d="M272.47,17.66,262,49.18,251.45,80.71l-21-21-21-21L241,28.17l31.52-10.51m0-1a1.19,1.19,0,0,0-.32.05L240.63,27.22,209.11,37.73a1,1,0,0,0-.66.72,1,1,0,0,0,.27.93l21,21,21,21a1,1,0,0,0,.7.3.85.85,0,0,0,.23,0,1,1,0,0,0,.72-.66L262.91,49.5,273.42,18a1,1,0,0,0-.24-1,1,1,0,0,0-.71-.29Zm0,2Z"/><path d="M155.54,190.07l.08,84-42.11-41.94,21-21,21-21m0-1a1,1,0,0,0-.71.3l-21,21-21,21a1,1,0,0,0-.29.71,1,1,0,0,0,.29.7l42.12,41.95a1,1,0,0,0,.7.29A1.09,1.09,0,0,0,156,275a1,1,0,0,0,.61-.92l-.08-84a1,1,0,0,0-1-1Z"/><path d="M100.14,134.51,58.2,176.62l-21-21-21-21,84-.08m0-1h0l-84,.08a1,1,0,0,0-.93.62,1,1,0,0,0,.22,1.09l21,21,21,21a1,1,0,0,0,.71.29h0a1,1,0,0,0,.71-.29l41.94-42.12a1,1,0,0,0-.71-1.7Zm0,2h0Z"/><path d="M107,141.06l42,42-42,42-42-42,42-42m0-1a1,1,0,0,0-.71.29l-42,42a1,1,0,0,0,0,1.41l42,42a1,1,0,0,0,.71.29,1,1,0,0,0,.7-.29l42-42a1,1,0,0,0,0-1.41l-42-42a1,1,0,0,0-.7-.29Z"/><path d="M203.59,44.5l42,42-42.76,42.75-42.2-41.86L203.59,44.5m0-1a1,1,0,0,0-.7.3L160,86.72a1,1,0,0,0-.29.71,1,1,0,0,0,.29.71L202.16,130a1,1,0,0,0,.71.29,1,1,0,0,0,.71-.29l42.75-42.76a1,1,0,0,0,0-1.41l-42-42a1,1,0,0,0-.71-.3Z"/><path d="M154.78,105.63a29.72,29.72,0,1,1-21,8.7,29.63,29.63,0,0,1,21-8.7m0-1a30.72,30.72,0,1,0,21.73,9,30.52,30.52,0,0,0-21.73-9Z"/><line class="cls-2" x1="53.07" y1="204.28" x2="32.05" y2="225.29"/><line class="cls-2" x1="61.47" y1="212.68" x2="27.85" y2="246.31"/><path d="M23.65,268.82a1.45,1.45,0,0,1-1.06-.44,1.49,1.49,0,0,1,0-2.12L68.82,220a1.5,1.5,0,0,1,2.12,2.12L24.71,268.38A1.48,1.48,0,0,1,23.65,268.82Z"/><line class="cls-2" x1="78.29" y1="229.5" x2="44.66" y2="263.12"/><line class="cls-2" x1="86.69" y1="237.9" x2="74.08" y2="250.51"/><g class="cls-1"><path class="cls-3" d="M45.66,273.12a2,2,0,0,1-1.41-.58,2,2,0,0,1,0-2.83l33.62-33.63a2,2,0,0,1,2.83,2.83L47.08,272.54A2,2,0,0,1,45.66,273.12Z"/></g><path d="M146.17,115.89a141.6,141.6,0,0,0,20,3c1.93.15,1.92-2.85,0-3A137.94,137.94,0,0,1,147,113c-1.88-.43-2.68,2.46-.79,2.89Z"/><path d="M137.61,124.26a268.09,268.09,0,0,0,36.1,5.43c1.92.16,1.91-2.84,0-3a261.42,261.42,0,0,1-35.31-5.32c-1.88-.41-2.68,2.48-.79,2.89Z"/><path d="M130.47,133.08a354.57,354.57,0,0,0,48.69,6.29c1.93.11,1.92-2.89,0-3a349.11,349.11,0,0,1-47.89-6.18c-1.88-.38-2.69,2.51-.8,2.89Z"/><path d="M203.16,56.28,171.91,87.53A1.5,1.5,0,0,0,174,89.65L205.28,58.4a1.5,1.5,0,0,0-2.12-2.12Z"/><path d="M210.72,63.85,179.48,95.09a1.5,1.5,0,0,0,2.12,2.13L212.84,66a1.5,1.5,0,0,0-2.12-2.12Z"/><polygon class="cls-4" points="258.07 140.89 250.32 146.85 253.59 156.07 245.52 150.53 237.76 156.49 240.54 147.11 232.47 141.57 242.25 141.31 245.02 131.93 248.29 141.15 258.07 140.89"/><polygon class="cls-4" points="164.8 41.55 158.28 46.48 160.96 54.2 154.25 49.53 147.74 54.46 150.11 46.64 143.41 41.97 151.58 41.81 153.95 33.99 156.63 41.71 164.8 41.55"/><polygon class="cls-4" points="220.21 185.82 208.88 193.81 212.98 207.06 201.88 198.75 190.55 206.75 195.01 193.62 183.91 185.32 197.77 185.51 202.24 172.38 206.34 185.63 220.21 185.82"/><polygon class="cls-4" points="116.4 99.76 104.75 91.07 92.89 99.46 97.55 85.7 85.91 77.01 100.44 77.19 105.1 63.43 109.42 77.31 123.94 77.49 112.08 85.88 116.4 99.76"/><path d="M249.45,34.73l6.83,7.14,1.07-2.56a182.82,182.82,0,0,0-20,1.49,1.51,1.51,0,0,0-.66,2.51l13.2,12.84,1.46-2.51L235.5,49.92c-1.88-.44-2.68,2.45-.8,2.89l15.86,3.72A1.51,1.51,0,0,0,252,54l-13.2-12.83-.66,2.5a178.3,178.3,0,0,1,19.19-1.38,1.52,1.52,0,0,0,1.06-2.56l-6.84-7.14c-1.34-1.4-3.46.72-2.12,2.12Z"/><path d="M104.54,155.61l27.11,27.12a1.5,1.5,0,0,0,2.12-2.12l-17.1-17.11a1.5,1.5,0,0,0-2.13,2.12l17.11,17.11,2.12-2.12-27.11-27.12a1.5,1.5,0,0,0-2.12,2.12Z"/><path d="M132.27,180.62A81.84,81.84,0,0,0,102,179.44a1.51,1.51,0,0,0-.67,2.51l4.82,3.81,2.31,1.83c.27.21,2,1.32,1.91,1.79l1-1c-6.84,1.11-13.91,2.48-19.27,7.21-1.45,1.28.68,3.39,2.12,2.12,4.91-4.33,11.71-5.42,17.95-6.43a1.47,1.47,0,0,0,1.05-1c.54-2.55-1.7-3.94-3.45-5.32l-6.36-5-.66,2.51a77.79,77.79,0,0,1,28.65,1.19c1.88.43,2.68-2.46.8-2.9Z"/><path class="cls-5" d="M28.85,256.31a2,2,0,0,1-1.41-3.42l33.62-33.62a2,2,0,1,1,2.83,2.83L30.26,255.72A2,2,0,0,1,28.85,256.31Z"/><path class="cls-6" d="M24.65,277.32a2,2,0,0,1-1.42-3.41l46.24-46.23a2,2,0,0,1,2.82,2.82L26.06,276.74A2,2,0,0,1,24.65,277.32Z"/></g></svg>