<svg xmlns="http://www.w3.org/2000/svg" viewBox="0 0 300 300"><defs><style>.cls-1{opacity:0.15;}.cls-2{opacity:0.2;}.cls-3,.cls-4,.cls-5,.cls-6,.cls-7{fill:none;stroke:#000;}.cls-3,.cls-5,.cls-7{stroke-miterlimit:10;}.cls-4,.cls-6{stroke-linejoin:round;}.cls-5,.cls-6,.cls-7{stroke-linecap:round;}.cls-7{stroke-width:3px;}</style></defs><g id="Layer_2" data-name="Layer 2"><polygon class="cls-3" points="64.83 159.63 54.82 177.47 69.54 179.53 64.83 159.63"/><line class="cls-3" x1="62.18" y1="178.5" x2="59.45" y2="197.99"/><circle class="cls-4" cx="41.27" cy="123.65" r="2.29"/><rect class="cls-3" x="51.35" y="-6.97" width="184.25" height="275" rx="7.24" transform="translate(274 -12.95) rotate(90)"/><line class="cls-5" x1="121.48" y1="223.11" x2="121.48" y2="281.77"/><line class="cls-5" x1="162.27" y1="223.11" x2="162.27" y2="281.77"/><line class="cls-5" x1="106.81" y1="282.23" x2="180.15" y2="282.23"/><path d="M79.23,85.69v43.38H35.4V85.69H79.23m1-1H34.4v45.38H80.23V84.69Z"/><line class="cls-6" x1="29.35" y1="88.82" x2="38.52" y2="79.65"/><line class="cls-6" x1="75.19" y1="79.65" x2="84.35" y2="88.82"/><line class="cls-6" x1="29.35" y1="125.48" x2="38.52" y2="134.65"/><line class="cls-6" x1="75.19" y1="134.65" x2="84.35" y2="125.48"/><circle class="cls-4" cx="41.27" cy="91.57" r="2.29"/><circle class="cls-4" cx="73.35" cy="123.65" r="2.29"/><circle class="cls-4" cx="73.35" cy="91.57" r="2.29"/><path d="M41.09,92.27a.75.75,0,0,0,0-1.5.75.75,0,0,0,0,1.5Z"/><path d="M73.24,92.36a.75.75,0,0,0,0-1.5.75.75,0,0,0,0,1.5Z"/><path d="M73.33,124.33a.75.75,0,0,0,0-1.5.75.75,0,0,0,0,1.5Z"/><path d="M41.18,124.33a.75.75,0,0,0,0-1.5.75.75,0,0,0,0,1.5Z"/><path class="cls-5" d="M98.89,110.2s28.51,4.52,29,27.82-27.81,29-27.81,29m-1.14-56.91a39.84,39.84,0,0,0,4.86-1.91m-2.42,5.73a10.24,10.24,0,0,0-2.32-3.65"/><path class="cls-3" d="M195.27,166.73a22.92,22.92,0,1,1-22.92-22.91A22.92,22.92,0,0,1,195.27,166.73Z"/><path class="cls-3" d="M227.13,144.28l11.62,22.22,11.63,22.23H203.89l11.62-22.23Z"/><circle class="cls-3" cx="28.9" cy="57.19" r="4.58"/><rect class="cls-3" x="234.69" y="52.61" width="23.37" height="9.17"/><rect class="cls-3" x="202.6" y="52.61" width="23.37" height="9.17"/><rect class="cls-3" x="170.52" y="52.61" width="23.37" height="9.17"/><line class="cls-7" x1="147.6" y1="88.82" x2="257.6" y2="88.82"/><line class="cls-7" x1="147.6" y1="98.9" x2="257.6" y2="98.9"/><line class="cls-7" x1="147.6" y1="108.98" x2="257.6" y2="108.98"/><line class="cls-7" x1="147.6" y1="119.07" x2="257.6" y2="119.07"/><line class="cls-7" x1="147.6" y1="129.15" x2="257.6" y2="129.15"/><path class="cls-6" d="M162.27,236.4c3.67,3.67,3.67,4.58,3.67,4.58v41.25"/></g></svg>