<svg xmlns="http://www.w3.org/2000/svg" viewBox="0 0 300 300"><defs><style>.cls-1{opacity:0.15;}.cls-2,.cls-3,.cls-4,.cls-5{fill:none;stroke:#000;}.cls-2,.cls-3{stroke-miterlimit:10;}.cls-3{stroke-linecap:square;}.cls-4{stroke-linecap:round;}.cls-4,.cls-5{stroke-linejoin:round;}</style></defs><g id="Layer_2" data-name="Layer 2"><line class="cls-2" x1="42.96" y1="180.75" x2="187.13" y2="180.75"/><line class="cls-2" x1="38.59" y1="32.21" x2="117.23" y2="32.21"/><line class="cls-2" x1="112.42" y1="28.27" x2="112.42" y2="76.33"/><line class="cls-2" x1="39.46" y1="70.65" x2="118.1" y2="70.65"/><line class="cls-2" x1="43.39" y1="27.4" x2="43.39" y2="75.46"/><line class="cls-2" x1="135.42" y1="55.28" x2="117.03" y2="148.72"/><line class="cls-2" x1="130.56" y1="58.54" x2="191.5" y2="70.54"/><line class="cls-2" x1="188.24" y1="65.68" x2="169.85" y2="159.12"/><line class="cls-2" x1="113.36" y1="143.78" x2="174.3" y2="155.78"/><path d="M150,199.44l15.66,25,15.56,24.88H118.76l15.56-24.88,15.65-25m0-1.65L133.58,224l-16.4,26.21h65.59L166.37,224,150,197.79Z"/><line class="cls-3" x1="148.25" y1="202.6" x2="177.96" y2="249.78"/><path d="M55.43,233.62A22.64,22.64,0,0,1,64.56,209c1.4-.93.09-3.2-1.32-2.26a25.31,25.31,0,0,0-10.33,27.62,1.31,1.31,0,0,0,2.52-.7Z"/><path d="M55.74,57l8.41-6.15-1.92-.78,1,6.41a1.31,1.31,0,0,0,1.92.78L71,53.78l1.3-.78c.14-.08,1.14-.62.94-.68a20.16,20.16,0,0,1,.27,3.21,1.33,1.33,0,0,0,2.23.93,37.63,37.63,0,0,1,7.14-4.73l-2-1.14a13.85,13.85,0,0,0,.58,3.51,1.31,1.31,0,0,0,1.61.92L85.73,54a18.35,18.35,0,0,0,2.57-1c-.24-.48-.35-.6-.34-.34v.23a3.77,3.77,0,0,0,0,1,2.66,2.66,0,0,0,.69,1.7,1.32,1.32,0,0,0,1.59.21,8,8,0,0,1,3.29-1.22c1.66-.25,1-2.78-.7-2.53a10,10,0,0,0-3.91,1.48l1.58.21c.2.23.11-.4.12-.68a3.55,3.55,0,0,0,0-1,2.1,2.1,0,0,0-1.74-1.62,6.15,6.15,0,0,0-3,.83l-3.4,1.36,1.61.92a11.73,11.73,0,0,1-.48-2.82,1.33,1.33,0,0,0-2-1.13,41.61,41.61,0,0,0-7.67,5.14l2.24.93c-.12-1.4,0-3.21-.55-4.51a2.3,2.3,0,0,0-3.12-1.09,29.42,29.42,0,0,0-4.09,2.38L63.87,55l1.92.78-1-6.41a1.32,1.32,0,0,0-1.93-.78l-8.42,6.14c-1.34,1,0,3.26,1.33,2.27Z"/><path d="M133.66,242.32l4.1-7.2a1.31,1.31,0,0,0-2.26-1.32l-4.1,7.2a1.31,1.31,0,1,0,2.26,1.32Z"/><path d="M133.63,243.23h7.81a1.31,1.31,0,1,0,0-2.62h-7.81a1.33,1.33,0,0,0-1.31,1.31,1.34,1.34,0,0,0,1.31,1.31Z"/><path d="M160,85.64c-4.43-1.06-8.62,1.8-11.82,4.56a29.59,29.59,0,0,0-4.29,4.59,19.08,19.08,0,0,0-3.22,5.6c-1.22,3.88,1.33,8.37,5.8,7.19,1.89-.5,3.53-1.92,5.5-2.12a6.36,6.36,0,0,1,5,2c3.05,3.07,3.12,8.44,2.17,12.39-1,4.33-4.23,7.17-7.72,9.67-2.94,2.1-7.4,5.44-10.26,1.38-2.66-3.77-.46-8.46,1.45-12A84.51,84.51,0,0,1,161.2,95.49c1.21-1.06-.56-2.81-1.75-1.75a86.4,86.4,0,0,0-17.59,21.42c-2.24,3.87-4.93,8.39-4.32,13,.5,3.87,3.6,7.56,7.78,7.15a12.83,12.83,0,0,0,5.87-2.61,51,51,0,0,0,5.26-4,16.82,16.82,0,0,0,5.62-11.81c.27-4.21-.59-9-4-11.82a9,9,0,0,0-5.47-2.15c-2.19,0-3.92,1.13-5.87,1.93-1,.39-2.09.72-3,0a3.14,3.14,0,0,1-.91-2.74c.28-2.47,2.22-4.92,3.76-6.77a28.12,28.12,0,0,1,5.53-5.09c2.08-1.44,4.61-2.86,7.23-2.24,1.55.37,2.22-2,.66-2.39Z"/><line class="cls-2" x1="43.33" y1="101.45" x2="74.99" y2="86.64"/><line class="cls-2" x1="69.18" y1="84.53" x2="102.51" y2="155.76"/><line class="cls-2" x1="72.96" y1="164.77" x2="104.62" y2="149.95"/><line class="cls-2" x1="45.44" y1="95.64" x2="78.77" y2="166.87"/><path d="M63.11,113.81,67.68,99.7c.53-1.61-2-2.3-2.52-.7l-4.58,14.11c-.52,1.61,2,2.3,2.53.7Z"/><path d="M83.8,152.37l5.13-13.55a1.31,1.31,0,0,0-.91-1.61,1.34,1.34,0,0,0-1.61.92l-5.14,13.55a1.32,1.32,0,0,0,.92,1.61,1.34,1.34,0,0,0,1.61-.92Z"/><path d="M66.35,125.62,80.45,129c1.64.39,2.34-2.14.69-2.53L67,123.1c-1.64-.39-2.34,2.13-.69,2.52Z"/><rect class="cls-2" x="25.48" y="14.29" width="174.76" height="262.14" rx="11.55"/><line class="cls-4" x1="281.73" y1="70.48" x2="266.73" y2="70.48"/><line class="cls-4" x1="281.73" y1="81.48" x2="266.73" y2="81.48"/><line class="cls-4" x1="281.73" y1="92.48" x2="266.73" y2="92.48"/><line class="cls-4" x1="281.73" y1="103.48" x2="266.73" y2="103.48"/><line class="cls-4" x1="281.73" y1="114.48" x2="266.73" y2="114.48"/><line class="cls-4" x1="281.73" y1="125.48" x2="266.73" y2="125.48"/><line class="cls-4" x1="281.73" y1="136.48" x2="266.73" y2="136.48"/><line class="cls-4" x1="281.73" y1="147.48" x2="266.73" y2="147.48"/><line class="cls-4" x1="281.73" y1="158.48" x2="266.73" y2="158.48"/><line class="cls-4" x1="281.73" y1="169.48" x2="266.73" y2="169.48"/><line class="cls-4" x1="281.73" y1="180.48" x2="266.73" y2="180.48"/><line class="cls-4" x1="281.73" y1="191.48" x2="266.73" y2="191.48"/><line class="cls-4" x1="281.73" y1="202.48" x2="266.73" y2="202.48"/><line class="cls-4" x1="281.73" y1="213.48" x2="266.73" y2="213.48"/><line class="cls-4" x1="281.73" y1="224.48" x2="266.73" y2="224.48"/><line class="cls-4" x1="281.73" y1="235.48" x2="266.73" y2="235.48"/><line class="cls-4" x1="281.73" y1="246.48" x2="266.73" y2="246.48"/><rect class="cls-5" x="256.73" y="55.48" width="25" height="205"/><path class="cls-2" d="M241.23,76V251a5,5,0,0,1-5,5h0a5,5,0,0,1-5-5V76l5.37-19.05a.12.12,0,0,1,.23,0Z"/><path d="M232.82,72q3.52.18,7,0c.64,0,.65-1,0-1q-3.51.17-7,0c-.65,0-.64,1,0,1Z"/><rect x="231.23" y="240.98" width="10" height="5"/></g></svg>